<svg width="393" height="393" viewBox="0 0 393 393" fill="none" xmlns="http://www.w3.org/2000/svg">
<path fill-rule="evenodd" clip-rule="evenodd" d="M201.875 112.1V138.696L239.29 123.475V96.8781L201.875 112.1Z" fill="white"/>
<path fill-rule="evenodd" clip-rule="evenodd" d="M191.147 96.8781L153.71 112.1V203.952L191.147 188.731V166.104L201.875 161.741V203.952L239.29 188.731V133.947L191.147 153.514V96.8781Z" fill="white"/>
<path d="M153.204 229.221C151.018 227.107 148.274 226.033 145.05 226.033H133.675V213.981H126.062L126.124 260.508H133.733V233.573H145.104C146.167 233.573 147.04 233.926 147.768 234.65C148.499 235.382 148.867 236.255 148.892 237.321L148.907 260.504H156.581L156.567 237.292C156.53 234.057 155.399 231.339 153.204 229.217V229.221Z" fill="white"/>
<path d="M187.803 229.104C185.609 227.067 182.869 226.033 179.652 226.033H162.433L162.513 233.577H179.707C180.769 233.577 181.642 233.93 182.37 234.654C183.098 235.382 183.466 236.251 183.495 237.31V237.488H172.552C169.328 237.488 166.581 238.562 164.39 240.676C162.189 242.801 161.086 245.516 161.115 248.747L161.094 249.242V249.289C161.079 252.532 162.185 255.257 164.387 257.386C166.574 259.504 169.318 260.574 172.542 260.574H191.129L191.18 237.037C191.154 233.835 190.019 231.164 187.803 229.104ZM168.724 248.744C168.703 247.699 169.056 246.844 169.801 246.131C170.569 245.392 171.464 245.035 172.542 245.035H183.465L183.527 253.034H172.56C171.483 253.034 170.584 252.674 169.809 251.935C169.059 251.222 168.699 250.37 168.706 249.329L168.728 248.784V248.744H168.724Z" fill="white"/>
<path d="M210.335 252.965C209.265 252.965 208.377 252.608 207.628 251.877C206.889 251.156 206.536 250.297 206.547 249.246V249.238L206.532 233.315H217.187L217.264 225.64H206.58L206.569 214.181H198.894L198.905 225.64H195.758L195.681 233.315H198.858L198.873 249.227C198.858 252.473 199.979 255.199 202.206 257.328C204.415 259.442 207.166 260.512 210.39 260.512H219.705L219.625 252.968H210.335V252.965Z" fill="white"/>
<path d="M231.819 214.047H224.21V260.574H231.819V214.047Z" fill="white"/>
<path d="M259.3 266.043V260.512H247.867C244.642 260.512 241.892 259.442 239.683 257.328C237.456 255.199 236.335 252.473 236.349 249.227L236.335 226.033H243.944L243.958 249.238V249.246C243.947 250.294 244.308 251.152 245.061 251.869C245.836 252.608 246.735 252.968 247.812 252.968H259.187V226.033H266.858L266.902 266.043H259.296H259.3Z" fill="white"/>
<path d="M262.797 274.19C259.773 269.962 255.425 267.178 250.221 266.13L249.773 266.039L249.035 272.094L249.417 272.174C256.225 273.583 261.163 280.584 261.159 288.822C261.159 289.128 261.159 289.423 261.141 289.714H255.723C256.447 287.854 256.789 286.366 256.789 285.067C256.789 282.109 255.818 279.609 253.976 277.84C252.171 276.104 249.661 275.187 246.72 275.187C243.78 275.187 241.229 276.119 239.421 277.88C237.601 279.652 236.641 282.138 236.637 285.071C236.637 286.37 236.975 287.858 237.699 289.717H226.419C224.003 289.717 222.94 289.31 222.474 288.968C221.557 288.313 221.092 286.854 221.095 284.634L221.103 266.127H214.847L214.84 286.828C214.84 289.641 215.506 291.803 216.885 293.436C218.381 295.245 220.466 296.126 223.253 296.126H266.811L266.872 295.776C267.2 293.902 267.367 291.926 267.371 289.903C267.375 283.812 265.795 278.379 262.804 274.198L262.797 274.19ZM250.774 285.071C250.774 287.847 249.064 289.863 246.709 289.863C245.556 289.863 244.548 289.397 243.802 288.52C243.06 287.643 242.648 286.421 242.648 285.071C242.648 282.218 244.246 280.376 246.713 280.376C247.958 280.376 248.995 280.828 249.708 281.686C250.403 282.523 250.77 283.695 250.77 285.071H250.774Z" fill="white"/>
<path d="M191.424 271.534H184.321V278.695H191.424V271.534Z" fill="white"/>
<path d="M200.925 271.534H193.822V278.695H200.925V271.534Z" fill="white"/>
<path d="M205.055 284.747C205.051 286.996 204.826 287.909 204.684 288.262C204.564 288.495 204.426 288.684 204.258 288.852C203.68 289.427 202.755 289.707 201.427 289.707H200.95L184.921 289.71C182.505 289.71 181.446 289.306 180.977 288.961C180.06 288.306 179.594 286.847 179.597 284.623L179.605 266.116H173.349L173.338 284.176H167.473C164.078 284.023 162.76 281.952 161.236 279.554C159.187 276.334 156.869 272.688 148.962 273.306L148.572 273.335V279.194L149.056 279.121C149.933 278.987 151.047 279.103 151.96 279.423C152.713 279.685 153.285 280.402 153.379 281.199L153.809 284.787C153.907 286.395 153.485 287.764 152.615 288.637C151.836 289.419 150.701 289.79 149.333 289.71L148.827 289.685V289.714H137.237C134.821 289.714 133.762 289.31 133.292 288.964C132.375 288.309 131.91 286.85 131.913 284.627L131.924 271.534H125.669L125.654 284.587C125.651 284.758 125.534 288.75 126.077 290.264C126.411 291.483 126.957 292.549 127.696 293.429C129.097 295.121 131.007 295.995 133.529 296.104L149.955 296.115C150.09 296.118 150.221 296.122 150.352 296.122C153.241 296.122 155.617 295.187 157.24 293.408C158.776 291.723 159.573 289.339 159.543 286.588C161.359 289.157 163.241 290.365 167.345 290.526L173.844 290.558C174.183 291.657 174.699 292.622 175.38 293.429C176.781 295.121 178.691 295.998 181.217 296.108L202.093 296.118C206.085 296.118 208.829 294.758 210.477 291.959C211.267 290.624 211.638 288.95 211.641 286.701V274.696H205.062V284.754L205.055 284.747Z" fill="white"/>
</svg>
